<?xml version="1.0" standalone="no"?>
<!DOCTYPE svg PUBLIC "-//W3C//DTD SVG 20010904//EN"
 "http://www.w3.org/TR/2001/REC-SVG-20010904/DTD/svg10.dtd">
<svg version="1.0" xmlns="http://www.w3.org/2000/svg"
 width="260.000000pt" height="260.000000pt" viewBox="0 0 260.000000 260.000000"
 preserveAspectRatio="xMidYMid meet">
<metadata>
Created by potrace 1.14, written by Peter Selinger 2001-2017
</metadata>
<g transform="translate(0.000000,260.000000) scale(0.100000,-0.100000)"
fill="#000000" stroke="none">
<path d="M1025 2443 c-46 -108 -58 -161 -64 -283 -7 -136 -28 -199 -86 -268
l-28 -33 -24 43 c-116 204 -520 546 -564 477 -39 -62 -3 -261 71 -386 26 -45
26 -46 -13 -37 -46 10 -147 6 -163 -7 -8 -6 -14 -21 -14 -33 0 -26 55 -116 70
-116 6 0 8 -4 5 -10 -3 -5 -15 -10 -25 -10 -46 0 -34 -41 22 -74 l41 -24 -44
-22 c-86 -44 -108 -82 -73 -135 14 -22 68 -48 119 -58 l20 -4 -20 -8 c-68 -28
-142 -117 -131 -159 7 -28 31 -36 111 -36 l61 0 -4 -36 c-4 -36 -4 -37 27 -32
17 2 31 2 31 -1 0 -3 -5 -33 -11 -66 -6 -33 -17 -100 -24 -150 -7 -49 -19
-120 -26 -156 -10 -53 -10 -72 0 -97 16 -37 29 -44 105 -51 33 -3 61 -11 63
-16 2 -6 -13 -19 -33 -30 -60 -32 -141 -128 -160 -190 -10 -30 -15 -57 -12
-61 4 -3 20 2 36 10 22 11 32 12 34 4 3 -8 12 -8 37 0 26 9 32 9 28 -1 -68
-153 -72 -185 -29 -225 84 -79 106 -93 137 -86 17 3 52 10 79 14 37 5 56 14
77 38 29 32 69 144 69 192 0 19 16 48 47 87 26 32 48 59 49 61 1 2 11 -1 23
-7 20 -11 20 -11 -4 -64 -41 -90 -52 -144 -34 -175 8 -15 28 -32 45 -37 17 -6
39 -17 49 -25 23 -19 167 -19 189 -1 8 7 20 36 26 65 9 47 15 55 51 75 46 26
120 120 156 199 41 88 86 98 102 22 23 -109 64 -157 170 -201 42 -17 101 -44
131 -59 79 -40 155 -55 206 -41 73 20 164 132 164 203 0 25 -32 75 -57 91 -7
4 -13 24 -13 42 0 49 -63 112 -121 121 -26 4 -46 15 -55 29 -32 49 -92 57
-147 19 -21 -14 -41 -24 -43 -21 -9 9 -23 122 -16 128 4 4 17 10 29 13 19 6
22 3 25 -26 4 -42 39 -50 74 -17 l24 22 0 -25 c0 -37 23 -53 45 -32 9 9 21 29
27 43 l10 26 9 -23 c11 -30 37 -28 45 4 6 24 8 23 38 -28 37 -60 67 -73 87
-36 7 12 14 67 17 121 l5 98 26 -25 c33 -32 64 -33 92 -5 19 19 21 30 17 105
-4 84 -2 94 19 73 6 -6 21 -9 34 -7 21 3 24 8 22 41 -2 33 0 37 23 37 39 0 83
27 90 57 8 29 -32 117 -66 148 -18 16 -15 18 46 50 120 63 215 161 218 228 1
25 -5 34 -33 50 -72 43 -263 61 -391 37 -29 -6 -55 -8 -57 -6 -2 2 9 28 26 57
34 61 76 184 86 252 6 41 5 47 -19 62 -20 13 -49 18 -114 19 -73 0 -97 -4
-148 -25 l-61 -26 -37 45 c-21 26 -58 79 -83 120 -25 40 -50 71 -56 69 -6 -2
-15 -18 -21 -35 -11 -31 -12 -32 -34 -17 -21 16 -22 15 -22 -11 0 -21 -3 -25
-17 -19 -33 13 -177 26 -228 21 l-50 -6 -40 51 c-68 87 -151 148 -222 163 -30
7 -33 5 -48 -31z"/>
</g>
</svg>
